<svg width="71" height="54" viewBox="0 0 71 54" fill="none" xmlns="http://www.w3.org/2000/svg">
<ellipse cx="2.7049" cy="1.52113" rx="1.84211" ry="1.52113" fill="white"/>
<ellipse cx="15.9681" cy="1.52113" rx="1.84211" ry="1.52113" fill="white"/>
<ellipse cx="29.2311" cy="1.52113" rx="1.84211" ry="1.52113" fill="white"/>
<ellipse cx="42.4943" cy="1.52113" rx="1.84211" ry="1.52113" fill="white"/>
<ellipse cx="55.7576" cy="1.52113" rx="1.84211" ry="1.52113" fill="white"/>
<ellipse cx="69.0208" cy="1.52113" rx="1.84211" ry="1.52113" fill="white"/>
<ellipse cx="2.7049" cy="14.4507" rx="1.84211" ry="1.52113" fill="white"/>
<ellipse cx="15.9681" cy="14.4507" rx="1.84211" ry="1.52113" fill="white"/>
<ellipse cx="29.2311" cy="14.4507" rx="1.84211" ry="1.52113" fill="white"/>
<ellipse cx="42.4943" cy="14.4507" rx="1.84211" ry="1.52113" fill="white"/>
<ellipse cx="55.7576" cy="14.4507" rx="1.84211" ry="1.52113" fill="white"/>
<ellipse cx="69.0208" cy="14.4507" rx="1.84211" ry="1.52113" fill="white"/>
<ellipse cx="2.7049" cy="27.3803" rx="1.84211" ry="1.52113" fill="white"/>
<ellipse cx="15.9681" cy="27.3803" rx="1.84211" ry="1.52113" fill="white"/>
<ellipse cx="29.2311" cy="27.3803" rx="1.84211" ry="1.52113" fill="white"/>
<ellipse cx="42.4943" cy="27.3803" rx="1.84211" ry="1.52113" fill="white"/>
<ellipse cx="55.7576" cy="27.3803" rx="1.84211" ry="1.52113" fill="white"/>
<ellipse cx="69.0208" cy="27.3803" rx="1.84211" ry="1.52113" fill="white"/>
<ellipse cx="2.7049" cy="40.3098" rx="1.84211" ry="1.52113" fill="white"/>
<ellipse cx="15.9681" cy="40.3098" rx="1.84211" ry="1.52113" fill="white"/>
<ellipse cx="29.2311" cy="40.3098" rx="1.84211" ry="1.52113" fill="white"/>
<ellipse cx="42.4943" cy="40.3098" rx="1.84211" ry="1.52113" fill="white"/>
<ellipse cx="55.7576" cy="40.3098" rx="1.84211" ry="1.52113" fill="white"/>
<ellipse cx="69.0208" cy="40.3098" rx="1.84211" ry="1.52113" fill="white"/>
<ellipse cx="2.7049" cy="52.4789" rx="1.84211" ry="1.52113" fill="white"/>
<ellipse cx="15.9681" cy="52.4789" rx="1.84211" ry="1.52113" fill="white"/>
<ellipse cx="29.2311" cy="52.4789" rx="1.84211" ry="1.52113" fill="white"/>
<ellipse cx="42.4943" cy="52.4789" rx="1.84211" ry="1.52113" fill="white"/>
<ellipse cx="55.7576" cy="52.4789" rx="1.84211" ry="1.52113" fill="white"/>
<ellipse cx="69.0208" cy="52.4789" rx="1.84211" ry="1.52113" fill="white"/>
<ellipse cx="2.7049" cy="1.52113" rx="1.84211" ry="1.52113" fill="white"/>
<ellipse cx="15.9681" cy="1.52113" rx="1.84211" ry="1.52113" fill="white"/>
<ellipse cx="29.2311" cy="1.52113" rx="1.84211" ry="1.52113" fill="white"/>
<ellipse cx="42.4943" cy="1.52113" rx="1.84211" ry="1.52113" fill="white"/>
<ellipse cx="55.7576" cy="1.52113" rx="1.84211" ry="1.52113" fill="white"/>
<ellipse cx="69.0208" cy="1.52113" rx="1.84211" ry="1.52113" fill="white"/>
<ellipse cx="2.7049" cy="14.4507" rx="1.84211" ry="1.52113" fill="white"/>
<ellipse cx="15.9681" cy="14.4507" rx="1.84211" ry="1.52113" fill="white"/>
<ellipse cx="29.2311" cy="14.4507" rx="1.84211" ry="1.52113" fill="white"/>
<ellipse cx="42.4943" cy="14.4507" rx="1.84211" ry="1.52113" fill="white"/>
<ellipse cx="55.7576" cy="14.4507" rx="1.84211" ry="1.52113" fill="white"/>
<ellipse cx="69.0208" cy="14.4507" rx="1.84211" ry="1.52113" fill="white"/>
<ellipse cx="2.7049" cy="27.3803" rx="1.84211" ry="1.52113" fill="white"/>
<ellipse cx="15.9681" cy="27.3803" rx="1.84211" ry="1.52113" fill="white"/>
<ellipse cx="29.2311" cy="27.3803" rx="1.84211" ry="1.52113" fill="white"/>
<ellipse cx="42.4943" cy="27.3803" rx="1.84211" ry="1.52113" fill="white"/>
<ellipse cx="55.7576" cy="27.3803" rx="1.84211" ry="1.52113" fill="white"/>
<ellipse cx="69.0208" cy="27.3803" rx="1.84211" ry="1.52113" fill="white"/>
<ellipse cx="2.7049" cy="40.3098" rx="1.84211" ry="1.52113" fill="white"/>
<ellipse cx="15.9681" cy="40.3098" rx="1.84211" ry="1.52113" fill="white"/>
<ellipse cx="29.2311" cy="40.3098" rx="1.84211" ry="1.52113" fill="white"/>
<ellipse cx="42.4943" cy="40.3098" rx="1.84211" ry="1.52113" fill="white"/>
<ellipse cx="55.7576" cy="40.3098" rx="1.84211" ry="1.52113" fill="white"/>
<ellipse cx="69.0208" cy="40.3098" rx="1.84211" ry="1.52113" fill="white"/>
<ellipse cx="2.7049" cy="52.4789" rx="1.84211" ry="1.52113" fill="white"/>
<ellipse cx="15.9681" cy="52.4789" rx="1.84211" ry="1.52113" fill="white"/>
<ellipse cx="29.2311" cy="52.4789" rx="1.84211" ry="1.52113" fill="white"/>
<ellipse cx="42.4943" cy="52.4789" rx="1.84211" ry="1.52113" fill="white"/>
<ellipse cx="55.7576" cy="52.4789" rx="1.84211" ry="1.52113" fill="white"/>
<ellipse cx="69.0208" cy="52.4789" rx="1.84211" ry="1.52113" fill="white"/>
</svg>
