<svg width="70" height="54" viewBox="0 0 70 54" fill="none" xmlns="http://www.w3.org/2000/svg">
<ellipse cx="1.84211" cy="1.52113" rx="1.84211" ry="1.52113" fill="white"/>
<ellipse cx="15.1052" cy="1.52113" rx="1.84211" ry="1.52113" fill="white"/>
<ellipse cx="28.3684" cy="1.52113" rx="1.84211" ry="1.52113" fill="white"/>
<ellipse cx="41.6315" cy="1.52113" rx="1.84211" ry="1.52113" fill="white"/>
<ellipse cx="54.8947" cy="1.52113" rx="1.84211" ry="1.52113" fill="white"/>
<ellipse cx="68.1579" cy="1.52113" rx="1.84211" ry="1.52113" fill="white"/>
<ellipse cx="1.84211" cy="14.4507" rx="1.84211" ry="1.52113" fill="white"/>
<ellipse cx="15.1052" cy="14.4507" rx="1.84211" ry="1.52113" fill="white"/>
<ellipse cx="28.3684" cy="14.4507" rx="1.84211" ry="1.52113" fill="white"/>
<ellipse cx="41.6315" cy="14.4507" rx="1.84211" ry="1.52113" fill="white"/>
<ellipse cx="54.8947" cy="14.4507" rx="1.84211" ry="1.52113" fill="white"/>
<ellipse cx="68.1579" cy="14.4507" rx="1.84211" ry="1.52113" fill="white"/>
<ellipse cx="1.84211" cy="27.3803" rx="1.84211" ry="1.52113" fill="white"/>
<ellipse cx="15.1052" cy="27.3803" rx="1.84211" ry="1.52113" fill="white"/>
<ellipse cx="28.3684" cy="27.3803" rx="1.84211" ry="1.52113" fill="white"/>
<ellipse cx="41.6315" cy="27.3803" rx="1.84211" ry="1.52113" fill="white"/>
<ellipse cx="54.8947" cy="27.3803" rx="1.84211" ry="1.52113" fill="white"/>
<ellipse cx="68.1579" cy="27.3803" rx="1.84211" ry="1.52113" fill="white"/>
<ellipse cx="1.84211" cy="40.3098" rx="1.84211" ry="1.52113" fill="white"/>
<ellipse cx="15.1052" cy="40.3098" rx="1.84211" ry="1.52113" fill="white"/>
<ellipse cx="28.3684" cy="40.3098" rx="1.84211" ry="1.52113" fill="white"/>
<ellipse cx="41.6315" cy="40.3098" rx="1.84211" ry="1.52113" fill="white"/>
<ellipse cx="54.8947" cy="40.3098" rx="1.84211" ry="1.52113" fill="white"/>
<ellipse cx="68.1579" cy="40.3098" rx="1.84211" ry="1.52113" fill="white"/>
<ellipse cx="1.84211" cy="52.4789" rx="1.84211" ry="1.52113" fill="white"/>
<ellipse cx="15.1052" cy="52.4789" rx="1.84211" ry="1.52113" fill="white"/>
<ellipse cx="28.3684" cy="52.4789" rx="1.84211" ry="1.52113" fill="white"/>
<ellipse cx="41.6315" cy="52.4789" rx="1.84211" ry="1.52113" fill="white"/>
<ellipse cx="54.8947" cy="52.4789" rx="1.84211" ry="1.52113" fill="white"/>
<ellipse cx="68.1579" cy="52.4789" rx="1.84211" ry="1.52113" fill="white"/>
<ellipse cx="1.84211" cy="1.52113" rx="1.84211" ry="1.52113" fill="white"/>
<ellipse cx="15.1052" cy="1.52113" rx="1.84211" ry="1.52113" fill="white"/>
<ellipse cx="28.3684" cy="1.52113" rx="1.84211" ry="1.52113" fill="white"/>
<ellipse cx="41.6315" cy="1.52113" rx="1.84211" ry="1.52113" fill="white"/>
<ellipse cx="54.8947" cy="1.52113" rx="1.84211" ry="1.52113" fill="white"/>
<ellipse cx="68.1579" cy="1.52113" rx="1.84211" ry="1.52113" fill="white"/>
<ellipse cx="1.84211" cy="14.4507" rx="1.84211" ry="1.52113" fill="white"/>
<ellipse cx="15.1052" cy="14.4507" rx="1.84211" ry="1.52113" fill="white"/>
<ellipse cx="28.3684" cy="14.4507" rx="1.84211" ry="1.52113" fill="white"/>
<ellipse cx="41.6315" cy="14.4507" rx="1.84211" ry="1.52113" fill="white"/>
<ellipse cx="54.8947" cy="14.4507" rx="1.84211" ry="1.52113" fill="white"/>
<ellipse cx="68.1579" cy="14.4507" rx="1.84211" ry="1.52113" fill="white"/>
<ellipse cx="1.84211" cy="27.3803" rx="1.84211" ry="1.52113" fill="white"/>
<ellipse cx="15.1052" cy="27.3803" rx="1.84211" ry="1.52113" fill="white"/>
<ellipse cx="28.3684" cy="27.3803" rx="1.84211" ry="1.52113" fill="white"/>
<ellipse cx="41.6315" cy="27.3803" rx="1.84211" ry="1.52113" fill="white"/>
<ellipse cx="54.8947" cy="27.3803" rx="1.84211" ry="1.52113" fill="white"/>
<ellipse cx="68.1579" cy="27.3803" rx="1.84211" ry="1.52113" fill="white"/>
<ellipse cx="1.84211" cy="40.3098" rx="1.84211" ry="1.52113" fill="white"/>
<ellipse cx="15.1052" cy="40.3098" rx="1.84211" ry="1.52113" fill="white"/>
<ellipse cx="28.3684" cy="40.3098" rx="1.84211" ry="1.52113" fill="white"/>
<ellipse cx="41.6315" cy="40.3098" rx="1.84211" ry="1.52113" fill="white"/>
<ellipse cx="54.8947" cy="40.3098" rx="1.84211" ry="1.52113" fill="white"/>
<ellipse cx="68.1579" cy="40.3098" rx="1.84211" ry="1.52113" fill="white"/>
<ellipse cx="1.84211" cy="52.4789" rx="1.84211" ry="1.52113" fill="white"/>
<ellipse cx="15.1052" cy="52.4789" rx="1.84211" ry="1.52113" fill="white"/>
<ellipse cx="28.3684" cy="52.4789" rx="1.84211" ry="1.52113" fill="white"/>
<ellipse cx="41.6315" cy="52.4789" rx="1.84211" ry="1.52113" fill="white"/>
<ellipse cx="54.8947" cy="52.4789" rx="1.84211" ry="1.52113" fill="white"/>
<ellipse cx="68.1579" cy="52.4789" rx="1.84211" ry="1.52113" fill="white"/>
</svg>
